<svg width="1520" height="300" viewBox="0 0 1520 300" fill="none" xmlns="http://www.w3.org/2000/svg">
<g clip-path="url(#clip0_661_29)">
<path d="M152.32 265C150.267 258.28 147.933 251.373 145.32 244.28C142.893 237.187 140.467 230.093 138.04 223H62.44C60.0133 230.093 57.4933 237.187 54.88 244.28C52.4533 251.373 50.2133 258.28 48.16 265H2.8C10.08 244.093 16.9867 224.773 23.52 207.04C30.0533 189.307 36.4 172.6 42.56 156.92C48.9067 141.24 55.0667 126.4 61.04 112.4C67.2 98.2133 73.5467 84.4 80.08 70.96H121.8C128.147 84.4 134.4 98.2133 140.56 112.4C146.72 126.4 152.88 141.24 159.04 156.92C165.387 172.6 171.827 189.307 178.36 207.04C184.893 224.773 191.8 244.093 199.08 265H152.32ZM99.96 114.92C99.0267 117.72 97.6267 121.547 95.76 126.4C93.8933 131.253 91.7467 136.853 89.32 143.2C86.8933 149.547 84.1867 156.547 81.2 164.2C78.4 171.853 75.5067 179.88 72.52 188.28H127.68C124.693 179.88 121.8 171.853 119 164.2C116.2 156.547 113.493 149.547 110.88 143.2C108.453 136.853 106.307 131.253 104.44 126.4C102.573 121.547 101.08 117.72 99.96 114.92ZM353.837 227.48V265H224.197V70.96H267.877V227.48H353.837ZM504.015 70.96V108.2H445.495V265H401.815V108.2H343.295V70.96H504.015ZM693.993 104.56C673.646 104.56 658.9 110.253 649.753 121.64C640.793 132.84 636.313 148.24 636.313 167.84C636.313 177.36 637.433 186.04 639.673 193.88C641.913 201.533 645.273 208.16 649.753 213.76C654.233 219.36 659.833 223.747 666.553 226.92C673.273 229.907 681.113 231.4 690.073 231.4C694.926 231.4 699.033 231.307 702.393 231.12C705.94 230.933 709.02 230.56 711.633 230V162.52H755.313V258.56C750.086 260.613 741.686 262.76 730.113 265C718.54 267.427 704.26 268.64 687.273 268.64C672.713 268.64 659.46 266.4 647.513 261.92C635.753 257.44 625.673 250.907 617.273 242.32C608.873 233.733 602.34 223.187 597.673 210.68C593.193 198.173 590.953 183.893 590.953 167.84C590.953 151.6 593.473 137.227 598.513 124.72C603.553 112.213 610.46 101.667 619.233 93.08C628.006 84.3067 638.273 77.68 650.033 73.2C661.98 68.72 674.673 66.48 688.113 66.48C697.26 66.48 705.473 67.1333 712.753 68.44C720.22 69.56 726.566 70.96 731.793 72.64C737.206 74.1333 741.593 75.72 744.953 77.4C748.5 79.08 751.02 80.3867 752.513 81.32L739.913 116.32C733.94 113.147 727.033 110.44 719.193 108.2C711.54 105.773 703.14 104.56 693.993 104.56ZM793.155 122.76C800.248 120.707 809.395 118.84 820.595 117.16C831.795 115.293 843.555 114.36 855.875 114.36C868.381 114.36 878.741 116.04 886.955 119.4C895.355 122.573 901.981 127.147 906.835 133.12C911.688 139.093 915.141 146.187 917.195 154.4C919.248 162.613 920.275 171.76 920.275 181.84V265H878.555V186.88C878.555 173.44 876.781 163.92 873.235 158.32C869.688 152.72 863.061 149.92 853.355 149.92C850.368 149.92 847.195 150.107 843.835 150.48C840.475 150.667 837.488 150.947 834.875 151.32V265H793.155V122.76ZM1095.8 191.08C1095.8 202.653 1094.12 213.293 1090.76 223C1087.4 232.52 1082.54 240.733 1076.2 247.64C1069.85 254.36 1062.2 259.587 1053.24 263.32C1044.46 267.053 1034.57 268.92 1023.56 268.92C1012.73 268.92 1002.84 267.053 993.878 263.32C985.104 259.587 977.544 254.36 971.198 247.64C964.851 240.733 959.904 232.52 956.358 223C952.811 213.293 951.038 202.653 951.038 191.08C951.038 179.507 952.811 168.96 956.358 159.44C960.091 149.92 965.131 141.8 971.478 135.08C978.011 128.36 985.664 123.133 994.438 119.4C1003.4 115.667 1013.1 113.8 1023.56 113.8C1034.2 113.8 1043.9 115.667 1052.68 119.4C1061.64 123.133 1069.29 128.36 1075.64 135.08C1081.98 141.8 1086.93 149.92 1090.48 159.44C1094.02 168.96 1095.8 179.507 1095.8 191.08ZM1053.24 191.08C1053.24 178.2 1050.62 168.12 1045.4 160.84C1040.36 153.373 1033.08 149.64 1023.56 149.64C1014.04 149.64 1006.66 153.373 1001.44 160.84C996.211 168.12 993.598 178.2 993.598 191.08C993.598 203.96 996.211 214.227 1001.44 221.88C1006.66 229.347 1014.04 233.08 1023.56 233.08C1033.08 233.08 1040.36 229.347 1045.4 221.88C1050.62 214.227 1053.24 203.96 1053.24 191.08ZM1209.04 186.88C1209.04 173.44 1207.26 163.92 1203.72 158.32C1200.36 152.72 1194.48 149.92 1186.08 149.92C1183.46 149.92 1180.76 150.107 1177.96 150.48C1175.16 150.667 1172.45 150.947 1169.84 151.32V265H1128.12V122.76C1131.66 121.827 1135.77 120.893 1140.44 119.96C1145.29 118.84 1150.33 117.907 1155.56 117.16C1160.97 116.227 1166.48 115.573 1172.08 115.2C1177.68 114.64 1183.18 114.36 1188.6 114.36C1199.24 114.36 1207.82 115.76 1214.36 118.56C1221.08 121.173 1226.58 124.347 1230.88 128.08C1236.85 123.787 1243.66 120.427 1251.32 118C1259.16 115.573 1266.34 114.36 1272.88 114.36C1284.64 114.36 1294.25 116.04 1301.72 119.4C1309.37 122.573 1315.44 127.147 1319.92 133.12C1324.4 139.093 1327.48 146.187 1329.16 154.4C1330.84 162.613 1331.68 171.76 1331.68 181.84V265H1289.96V186.88C1289.96 173.44 1288.18 163.92 1284.64 158.32C1281.28 152.72 1275.4 149.92 1267 149.92C1264.76 149.92 1261.58 150.48 1257.48 151.6C1253.56 152.72 1250.29 154.12 1247.68 155.8C1248.98 160.093 1249.82 164.667 1250.2 169.52C1250.57 174.187 1250.76 179.227 1250.76 184.64V265H1209.04V186.88ZM1362.56 192.48C1362.56 179.413 1364.52 168.027 1368.44 158.32C1372.55 148.427 1377.87 140.213 1384.4 133.68C1390.93 127.147 1398.4 122.2 1406.8 118.84C1415.39 115.48 1424.16 113.8 1433.12 113.8C1454.03 113.8 1470.55 120.24 1482.68 133.12C1494.81 145.813 1500.88 164.573 1500.88 189.4C1500.88 191.827 1500.79 194.533 1500.6 197.52C1500.41 200.32 1500.23 202.84 1500.04 205.08H1405.4C1406.33 213.667 1410.35 220.48 1417.44 225.52C1424.53 230.56 1434.05 233.08 1446 233.08C1453.65 233.08 1461.12 232.427 1468.4 231.12C1475.87 229.627 1481.93 227.853 1486.6 225.8L1492.2 259.68C1489.96 260.8 1486.97 261.92 1483.24 263.04C1479.51 264.16 1475.31 265.093 1470.64 265.84C1466.16 266.773 1461.31 267.52 1456.08 268.08C1450.85 268.64 1445.63 268.92 1440.4 268.92C1427.15 268.92 1415.57 266.96 1405.68 263.04C1395.97 259.12 1387.85 253.8 1381.32 247.08C1374.97 240.173 1370.21 232.053 1367.04 222.72C1364.05 213.387 1362.56 203.307 1362.56 192.48ZM1460.56 176.52C1460.37 172.973 1459.72 169.52 1458.6 166.16C1457.67 162.8 1456.08 159.813 1453.84 157.2C1451.79 154.587 1449.08 152.44 1445.72 150.76C1442.55 149.08 1438.53 148.24 1433.68 148.24C1429.01 148.24 1425 149.08 1421.64 150.76C1418.28 152.253 1415.48 154.307 1413.24 156.92C1411 159.533 1409.23 162.613 1407.92 166.16C1406.8 169.52 1405.96 172.973 1405.4 176.52H1460.56Z" fill="white"/>
</g>
<defs>
<clipPath id="clip0_661_29">
<rect width="1520" height="300" fill="white"/>
</clipPath>
</defs>
</svg>
