<svg width="2000" height="2000" viewBox="0 0 2000 2000" fill="none" xmlns="http://www.w3.org/2000/svg">
<path d="M1415.89 1369.65C1412.46 1373.31 1403.91 1388.99 1410.64 1404.3C1425.85 1438.89 1424.27 1438.6 1430.87 1461.36C1430.87 1461.36 1436.42 1494.99 1434.32 1520.18C1429.94 1572.88 1425.14 1568.66 1415.38 1615.29C1402.74 1675.69 1420.46 1699.4 1426.36 1726.65C1428.62 1737.14 1425.38 1752.88 1422.11 1762.5C1421.04 1765.62 1423.04 1775.81 1437.22 1776.16C1451.39 1776.51 1472.3 1769.87 1487.02 1750.96C1501.73 1732.06 1515.2 1716.32 1520.73 1696.26C1529.98 1662.66 1516.75 1622.2 1520.44 1596.42C1524.14 1570.63 1540.87 1496.27 1530.87 1439.43C1523.21 1395.94 1511.84 1352.92 1505.79 1345.53C1500.79 1339.42 1497.92 1339.69 1494.11 1342.01C1487.88 1345.79 1483.21 1352.49 1458.34 1363.27C1433.47 1374.04 1415.89 1369.65 1415.89 1369.65Z" fill="white"/>
<path d="M1416.21 1369.16C1412.79 1372.81 1407.91 1379.99 1414.64 1395.3C1429.85 1429.89 1428.27 1429.6 1434.87 1452.36C1434.87 1452.36 1440.42 1485.99 1438.32 1511.18C1433.94 1563.88 1429.14 1559.66 1419.38 1606.29C1406.74 1666.69 1424.46 1690.4 1430.36 1717.65C1432.62 1728.14 1429.38 1743.88 1426.11 1753.5C1425.04 1756.62 1427.04 1766.81 1441.22 1767.16C1455.39 1767.51 1476.3 1760.87 1491.02 1741.96C1505.73 1723.06 1519.2 1707.32 1524.73 1687.26C1533.98 1653.66 1520.75 1613.2 1524.44 1587.42C1528.14 1561.63 1544.87 1487.27 1534.87 1430.43C1527.21 1386.94 1515.84 1343.92 1509.79 1336.53C1504.79 1330.42 1501.92 1330.69 1498.11 1333.01C1491.88 1336.79 1487.21 1343.49 1462.34 1354.27C1437.47 1365.04 1419.83 1365.29 1416.21 1369.16Z" fill="white"/>
<path d="M463.219 1484.14C460.419 1525.53 459.048 1565.33 466.715 1630.47C476.286 1711.8 514.882 1783.31 597.474 1832.49C664.727 1872.53 762.633 1886.01 828.183 1871.51C878.318 1860.42 941.465 1831.92 979.032 1769.09C1001.32 1731.81 1017.15 1680.94 1007.62 1618.71C1004.8 1600.38 994.772 1593.21 979.012 1598.15C965.567 1602.35 946.654 1614.07 893.829 1623.76C825.068 1636.38 720.927 1618.17 653.854 1586.96C612.019 1567.49 544.65 1524.53 486.112 1464.4C477.337 1455.39 466.018 1442.75 463.219 1484.14Z" fill="white"/>
<path d="M465.866 1466.93C463.067 1508.32 461.696 1548.12 469.363 1613.26C478.934 1694.59 517.53 1766.1 600.122 1815.28C667.375 1855.32 765.281 1868.8 830.83 1854.3C880.966 1843.21 944.113 1814.71 981.682 1751.88C1003.97 1714.6 1019.8 1663.73 1010.26 1601.5C1007.45 1583.17 997.412 1576 981.662 1580.94C968.215 1585.15 949.302 1596.86 896.477 1606.55C827.715 1619.17 723.575 1600.96 656.502 1569.75C614.667 1550.28 547.298 1507.32 488.76 1447.19C479.984 1438.18 468.666 1425.54 465.866 1466.93Z" fill="white"/>
<path d="M813.407 309.649C798.763 322.424 794.541 359.427 784.931 382.318C775.647 404.43 742.161 444.624 722.279 515.519C713.254 547.7 718.179 570.178 692.742 613.629C668.652 654.779 671.494 676.631 658.247 694.274C646.141 710.396 641.172 711.09 633.001 728.114C633.001 728.114 653.202 725.014 687.901 739.625C722.601 754.235 796.748 775.055 843.136 779.072C880.653 782.322 943.269 783.675 991.552 780.807C1002.97 780.129 1013.59 779.215 1022.88 778.034C1070.51 771.983 1129.43 758.555 1199.38 731.417C1242.97 714.51 1280.08 689.863 1280.08 689.863C1268.05 614.707 1224.07 563.3 1202.9 546.046C1185.62 531.965 1144.71 394.336 989.382 349.285C989.382 349.285 879.086 306.338 860.731 301.645C852.02 299.419 834.494 291.254 813.407 309.649Z" fill="white"/>
<mask id="mask0_661_38" style="mask-type:luminance" maskUnits="userSpaceOnUse" x="633" y="297" width="648" height="486">
<path d="M813.407 309.649C798.763 322.424 794.541 359.427 784.931 382.318C775.647 404.43 742.161 444.624 722.279 515.519C713.254 547.7 718.179 570.178 692.742 613.629C668.652 654.779 671.494 676.631 658.247 694.274C646.141 710.396 641.172 711.09 633.001 728.114C633.001 728.114 653.202 725.014 687.901 739.625C722.601 754.235 796.748 775.055 843.136 779.072C880.653 782.322 943.269 783.675 991.552 780.807C1002.97 780.129 1013.59 779.215 1022.88 778.034C1070.51 771.983 1129.43 758.555 1199.38 731.417C1242.97 714.51 1280.08 689.863 1280.08 689.863C1268.05 614.707 1224.07 563.3 1202.9 546.046C1185.62 531.965 1144.71 394.336 989.382 349.285C989.382 349.285 879.086 306.338 860.731 301.645C852.02 299.419 834.494 291.254 813.407 309.649Z" fill="white"/>
</mask>
<g mask="url(#mask0_661_38)">
<path d="M373.618 195.393H1626.82V871.081H373.618V195.393Z" fill="white"/>
</g>
<path d="M624.953 847.129C624.953 847.129 603.608 858.034 611.042 857.841C619.324 857.627 744.362 913.913 874.57 933.854C969.477 948.389 1092.67 936.821 1189.98 887.077C1256 853.33 1287.94 837.692 1314.27 805.129C1320.85 796.999 1322.91 776.474 1307.93 743.001C1293.98 711.826 1295.09 688.884 1288.99 681.625C1288.99 681.625 1280.58 671.778 1271.5 678.14C1223.56 711.728 1140.5 743.707 1046.39 765.453C975.217 781.898 838.674 779.302 739.684 751.478C698.281 739.84 663.955 720.791 639.066 718.887L642.711 713.003C631.497 715.922 622.555 715.769 609.66 741.707C598.029 765.105 612.274 794.886 608.537 804.061C605.454 811.626 582.197 819.303 601.648 834.164C619.147 847.534 624.953 847.129 624.953 847.129Z" fill="white"/>
<path d="M599.547 886.615L606.589 868.291C616.88 868.54 744.292 929.665 874.501 949.606C969.408 964.141 1092.6 952.572 1189.91 902.828C1255.93 869.081 1309.9 839.192 1318.76 809.745C1326.15 785.163 1322.84 792.225 1307.86 758.753C1293.91 727.577 1295.02 704.635 1288.92 697.377C1288.92 697.377 1280.51 687.53 1271.43 693.892C1223.49 727.479 1140.43 759.459 1046.32 781.204C975.147 797.649 838.604 795.054 739.615 767.229C690.455 753.412 650.486 729.301 625.429 735.823C614.216 738.742 609.781 744.605 596.886 770.543C585.255 793.941 589.228 811.636 585.49 820.811C582.407 828.377 568.828 842.113 574.605 865.899C580.819 891.488 599.547 886.615 599.547 886.615Z" fill="white"/>
<path d="M603.714 877.451C603.714 877.451 606.846 863.38 614.28 863.187C622.562 862.973 747.599 919.259 877.808 939.2C972.715 953.736 1095.91 942.167 1193.22 892.423C1259.23 858.676 1291.18 843.038 1317.51 810.475C1324.08 802.345 1326.14 781.82 1311.17 748.347C1297.22 717.172 1298.33 694.23 1292.22 686.971C1292.22 686.971 1283.82 677.124 1274.74 683.486C1226.79 717.074 1143.73 749.053 1049.62 770.799C978.452 787.244 841.911 784.648 742.922 756.824C693.762 743.006 653.793 718.895 628.736 725.418C617.523 728.337 613.088 734.199 600.194 760.138C588.562 783.536 592.535 801.231 588.797 810.406C585.715 817.971 572.135 831.708 577.912 855.494C584.126 881.082 603.714 877.451 603.714 877.451Z" fill="white"/>
<mask id="mask1_661_38" style="mask-type:luminance" maskUnits="userSpaceOnUse" x="576" y="681" width="747" height="265">
<path d="M603.714 877.451C603.714 877.451 606.846 863.38 614.28 863.187C622.562 862.973 747.599 919.259 877.808 939.2C972.715 953.736 1095.91 942.167 1193.22 892.423C1259.23 858.676 1291.18 843.038 1317.51 810.475C1324.08 802.345 1326.14 781.82 1311.17 748.347C1297.22 717.172 1298.33 694.23 1292.22 686.971C1292.22 686.971 1283.82 677.124 1274.74 683.486C1226.79 717.074 1143.73 749.053 1049.62 770.799C978.452 787.244 841.911 784.648 742.922 756.824C693.762 743.006 653.793 718.895 628.736 725.418C617.523 728.337 613.088 734.199 600.194 760.138C588.562 783.536 592.535 801.231 588.797 810.406C585.715 817.971 572.135 831.708 577.912 855.494C584.126 881.082 603.714 877.451 603.714 877.451Z" fill="white"/>
</mask>
<g mask="url(#mask1_661_38)">
<path d="M316.486 412.926H1569.68V1088.61H316.486V412.926Z" fill="white"/>
</g>
<path d="M1028.21 1482.06C1028.21 1482.06 1061.54 1595.42 1054.13 1675.29C1047.01 1751.96 995.872 1805.44 995.872 1805.44C992.782 1815.38 989.022 1819.64 999.582 1831.22C1020.4 1854.03 1076.55 1855.25 1102.93 1852.69C1123.14 1850.73 1123.52 1843.81 1123.52 1843.81L1186.94 1600.29L1136.43 1437.28L1028.21 1482.06Z" fill="white"/>
<path d="M1031.89 1474.67C1031.89 1474.67 1063.08 1584.79 1056.96 1658.3C1050.57 1735.04 1022.06 1768.64 1008.58 1788.52C997.952 1804.2 984.932 1811.49 1002.51 1825.83C1026.45 1845.36 1080.23 1847.86 1106.61 1845.3C1126.82 1843.34 1127.21 1836.42 1127.21 1836.42L1190.62 1592.9L1140.12 1429.89L1031.89 1474.67Z" fill="white"/>
<path d="M502.299 1219.78C502.299 1219.78 499.547 1263.68 482.846 1294.56C464.078 1329.27 459.108 1357.03 465.828 1377.22C470.734 1391.97 514.871 1442.96 574.183 1485.03C631.087 1525.4 670.027 1540.66 712.881 1553.27C769.543 1569.94 859.574 1576.14 898.137 1566.78C932.147 1558.53 975.618 1544.18 1038.62 1485.14C1084.04 1442.58 1262.42 1361.36 1262.42 1361.36C1262.42 1361.36 1375.36 1362.76 1425.31 1346.61C1475.34 1330.43 1499.17 1312.47 1498.66 1290.55C1498.35 1277.48 1492.87 1277.88 1492.45 1266.6C1492.02 1255.33 1495.85 1251.83 1493.65 1237.68C1492.02 1227.23 1481.85 1220.86 1481.85 1220.86L502.299 1219.78Z" fill="white"/>
<path d="M507.118 1208.93C507.118 1208.93 504.366 1252.83 487.665 1283.72C468.897 1318.42 463.927 1346.19 470.647 1366.38C475.554 1381.12 519.69 1432.11 579.002 1474.19C635.906 1514.56 674.846 1529.81 717.7 1542.42C774.362 1559.1 855.368 1566.48 895.429 1558.49C923.754 1552.84 980.432 1533.34 1043.44 1474.3C1088.86 1431.74 1267.24 1350.51 1267.24 1350.51C1267.24 1350.51 1380.18 1351.92 1430.13 1335.76C1480.16 1319.58 1503.99 1301.62 1503.48 1279.71C1503.17 1266.64 1497.69 1267.03 1497.27 1255.76C1496.84 1244.49 1500.67 1240.99 1498.47 1226.84C1496.84 1216.38 1486.67 1210.01 1486.67 1210.01L507.118 1208.93Z" fill="white"/>
<mask id="mask2_661_38" style="mask-type:luminance" maskUnits="userSpaceOnUse" x="467" y="1208" width="1037" height="354">
<path d="M507.118 1208.93C507.118 1208.93 504.366 1252.83 487.665 1283.72C468.897 1318.42 463.927 1346.19 470.647 1366.38C475.554 1381.12 519.69 1432.11 579.002 1474.19C635.906 1514.56 674.846 1529.81 717.7 1542.42C774.362 1559.1 855.368 1566.48 895.429 1558.49C923.754 1552.84 980.432 1533.34 1043.44 1474.3C1088.86 1431.74 1267.24 1350.51 1267.24 1350.51C1267.24 1350.51 1380.18 1351.92 1430.13 1335.76C1480.16 1319.58 1503.99 1301.62 1503.48 1279.71C1503.17 1266.64 1497.69 1267.03 1497.27 1255.76C1496.84 1244.49 1500.67 1240.99 1498.47 1226.84C1496.84 1216.38 1486.67 1210.01 1486.67 1210.01L507.118 1208.93Z" fill="white"/>
</mask>
<g mask="url(#mask2_661_38)">
<path d="M271.08 985.869H1524.28V1661.56H271.08V985.869Z" fill="white"/>
</g>
<path d="M1127.41 1434.64C1127.41 1434.64 1155.35 1558.33 1148.92 1655.24C1142.2 1756.55 1108.36 1838.92 1109.37 1851.34C1110.06 1859.83 1114.87 1871.66 1165.75 1868.89C1266.9 1863.36 1358.74 1802.03 1379.45 1770.08C1400.15 1738.15 1370.26 1700.59 1369.27 1666.48C1366.93 1585.22 1394.12 1558.23 1394.91 1512.66C1395.87 1457.95 1370.26 1418.26 1370.26 1387.15C1370.26 1345.91 1384.74 1292.31 1384.74 1292.31L1253.58 1343.97L1127.41 1434.64Z" fill="white"/>
<path d="M1129.98 1428.19C1129.98 1428.19 1157.91 1551.88 1151.48 1648.8C1144.76 1750.1 1110.92 1832.47 1111.93 1844.89C1112.62 1853.38 1117.43 1865.22 1168.31 1862.44C1269.46 1856.92 1361.3 1795.59 1382.01 1763.63C1402.71 1731.7 1372.82 1694.14 1371.83 1660.03C1369.49 1578.78 1396.68 1551.78 1397.48 1506.21C1398.43 1451.51 1372.82 1411.81 1372.82 1380.7C1372.82 1339.46 1404.45 1281.18 1404.45 1281.18L1256.14 1337.52L1129.98 1428.19Z" fill="white"/>
<path d="M568.752 998.862C568.752 998.862 551.694 1008.09 538.969 1022.27C526.244 1036.44 527.131 1112.64 522.573 1137.24C518.014 1161.84 500.635 1174.85 496.303 1184.88C492.212 1194.34 491.823 1209.89 504.448 1222.43C517.074 1234.96 666.204 1359.91 713.501 1392.46C744.916 1414.08 885.522 1491.39 974.456 1490.4C1063.39 1489.4 1161.47 1433.84 1239.65 1383.96C1316.7 1334.82 1383.35 1317.55 1433.1 1279.95C1479.89 1244.59 1510.41 1229.95 1498.81 1200.01C1489.25 1175.31 1495.67 1140.8 1481.38 1101.42C1466.99 1061.77 1441.31 1043.16 1434.85 1032.48C1427.35 1020.1 1423.39 975.522 1408.77 952.559C1394.16 929.597 1369.98 918.073 1366.78 926.116C1307.14 1075.91 1222.66 1122.19 1136.09 1151.74C1060.02 1177.7 912.264 1187.63 761.346 1131.74C628.765 1082.64 588.096 1039.9 572.19 1023.03C567.118 1017.65 568.752 998.862 568.752 998.862Z" fill="white"/>
<path d="M672.973 216.452C672.973 168.173 712.112 129.035 760.391 129.035C808.671 129.035 847.809 168.173 847.809 216.452C847.809 264.732 808.671 303.87 760.391 303.87C712.112 303.87 672.973 264.732 672.973 216.452Z" fill="white"/>
<path d="M675.334 209.418C675.334 161.138 714.473 122 762.752 122C811.032 122 850.17 161.138 850.17 209.418C850.17 257.697 811.032 296.836 762.752 296.836C714.473 296.836 675.334 257.697 675.334 209.418Z" fill="white"/>
<path d="M1101.04 1089.02C1101.04 1089.02 1067.03 961.075 1153.84 931.662C1238.31 903.04 1274.08 986.092 1274.08 986.092C1274.08 986.092 1274.8 999.391 1271.06 1017.21C1265.6 1043.24 1250.63 1078.93 1210.01 1096.85C1146.16 1125 1101.04 1089.02 1101.04 1089.02Z" fill="white"/>
<mask id="mask3_661_38" style="mask-type:luminance" maskUnits="userSpaceOnUse" x="1094" y="925" width="181" height="183">
<path d="M1101.04 1089.02C1101.04 1089.02 1067.03 961.075 1153.84 931.662C1238.31 903.04 1274.08 986.092 1274.08 986.092C1274.08 986.092 1274.8 999.391 1271.06 1017.21C1265.6 1043.24 1250.63 1078.93 1210.01 1096.85C1146.16 1125 1101.04 1089.02 1101.04 1089.02Z" fill="white"/>
</mask>
<g mask="url(#mask3_661_38)">
<path d="M1071.83 1005.53C1071.36 957.375 1109.66 917.96 1157.37 917.496C1205.08 917.032 1244.14 955.694 1244.61 1003.85C1245.08 1052.01 1206.78 1091.42 1159.07 1091.89C1111.35 1092.35 1072.29 1053.69 1071.83 1005.53Z" fill="white"/>
</g>
<path d="M1005.92 1100.5C1005.92 1100.5 1014.39 987.939 923.415 972.111C824.467 954.895 801.684 1055.51 801.684 1055.51C801.684 1055.51 797.344 1132.97 891.211 1145.88C971.735 1156.96 1005.92 1100.5 1005.92 1100.5Z" fill="white"/>
<mask id="mask4_661_38" style="mask-type:luminance" maskUnits="userSpaceOnUse" x="801" y="970" width="206" height="178">
<path d="M1005.92 1100.5C1005.92 1100.5 1014.39 987.939 923.415 972.111C824.467 954.895 801.684 1055.51 801.684 1055.51C801.684 1055.51 797.344 1132.97 891.211 1145.88C971.735 1156.96 1005.92 1100.5 1005.92 1100.5Z" fill="white"/>
</mask>
<g mask="url(#mask4_661_38)">
<path d="M815.267 1038.4C814.75 985.292 855.746 941.838 906.833 941.34C957.921 940.843 999.752 983.491 1000.27 1036.6C1000.79 1089.7 959.793 1133.16 908.705 1133.65C857.617 1134.15 815.784 1091.5 815.267 1038.4Z" fill="white"/>
</g>
<path d="M1100.82 1089.08C1100.82 1089.08 1099.52 1002.85 1168.91 979.277C1238.3 955.7 1272.58 994.757 1272.58 994.757C1272.58 994.757 1288.9 977.193 1264.82 950.862C1240.75 924.531 1177.58 928.81 1177.58 928.81C1177.58 928.81 1127.19 927.468 1104.03 995.482C1089.94 1036.88 1100.82 1089.08 1100.82 1089.08Z" fill="white"/>
<path d="M1005.4 1101.48C1005.4 1101.48 994.502 1022.87 911.216 1018.31C821.987 1013.44 805.14 1083.04 805.14 1083.04C805.14 1083.04 786.314 1038.46 809.707 1011.83C833.1 985.201 892.329 967.023 911.606 969.586C930.883 972.148 990.762 1009.35 996.902 1029.81C1009.07 1070.37 1005.4 1101.48 1005.4 1101.48Z" fill="white"/>
<path d="M1101.01 1089.51C1101.01 1089.51 1064.2 973.971 1141.36 929.268C1175.77 909.327 1207.96 909.811 1240.64 919.668C1278.2 932.881 1289.83 957.701 1290.32 984.745C1291.42 1004.59 1284.45 1051.17 1222.82 1089.98C1222.82 1089.98 1272.19 1048.79 1271.04 994.509C1270.06 948.125 1207.81 919.358 1149.39 946.839C1078.25 980.304 1101.01 1089.51 1101.01 1089.51Z" fill="white"/>
<path d="M1005.65 1101.59C1005.65 1101.59 1007.63 1087.86 1006.57 1068.88C1004.42 1030.39 989.802 970.321 920.931 959.375C876.948 952.384 840.77 966.498 814.313 988.691C789.625 1009.4 782.097 1040.66 784.696 1062.25C787.775 1076.6 806.288 1132.23 895.311 1146.24C895.311 1146.24 808.529 1131.45 805.198 1060.46C803.667 1027.83 841.393 971.77 921.065 978.942C1005.39 986.533 1005.65 1101.59 1005.65 1101.59Z" fill="white"/>
<path d="M1189.62 982.406C1189.52 972.163 1203.9 963.718 1221.73 963.544C1239.56 963.371 1254.1 971.534 1254.2 981.778C1254.3 992.022 1239.92 1000.47 1222.09 1000.64C1204.26 1000.81 1189.72 992.65 1189.62 982.406Z" fill="white"/>
<path d="M916.877 1032.98C916.777 1022.74 931.152 1014.29 948.983 1014.12C966.815 1013.95 981.352 1022.11 981.452 1032.35C981.552 1042.6 967.176 1051.04 949.344 1051.22C931.513 1051.39 916.976 1043.23 916.877 1032.98Z" fill="white"/>
</svg>
