<svg width="4306" height="2000" viewBox="0 0 4306 2000" fill="none" xmlns="http://www.w3.org/2000/svg">
<path d="M380.8 932C375.667 915.2 369.833 897.933 363.3 880.2C357.233 862.467 351.167 844.733 345.1 827H156.1C150.033 844.733 143.733 862.467 137.2 880.2C131.133 897.933 125.533 915.2 120.4 932H7C25.2 879.733 42.4667 831.433 58.8 787.1C75.1333 742.767 91 701 106.4 661.8C122.267 622.6 137.667 585.5 152.6 550.5C168 515.033 183.867 480.5 200.2 446.9H304.5C320.367 480.5 336 515.033 351.4 550.5C366.8 585.5 382.2 622.6 397.6 661.8C413.467 701 429.567 742.767 445.9 787.1C462.233 831.433 479.5 879.733 497.7 932H380.8ZM249.9 556.8C247.567 563.8 244.067 573.367 239.4 585.5C234.733 597.633 229.367 611.633 223.3 627.5C217.233 643.367 210.467 660.867 203 680C196 699.133 188.767 719.2 181.3 740.2H319.2C311.733 719.2 304.5 699.133 297.5 680C290.5 660.867 283.733 643.367 277.2 627.5C271.133 611.633 265.767 597.633 261.1 585.5C256.433 573.367 252.7 563.8 249.9 556.8ZM884.592 838.2V932H560.492V446.9H669.692V838.2H884.592ZM1260.04 446.9V540H1113.74V932H1004.54V540H858.238V446.9H1260.04ZM1640.48 441.3C1713.28 441.3 1769.05 454.367 1807.78 480.5C1846.52 506.167 1865.88 546.3 1865.88 600.9C1865.88 634.967 1857.95 662.733 1842.08 684.2C1826.68 705.2 1804.28 721.767 1774.88 733.9C1784.68 746.033 1794.95 760.033 1805.68 775.9C1816.42 791.3 1826.92 807.633 1837.18 824.9C1847.92 841.7 1858.18 859.433 1867.98 878.1C1877.78 896.3 1886.88 914.267 1895.28 932H1772.78C1763.92 916.133 1754.82 900.033 1745.48 883.7C1736.62 867.367 1727.28 851.5 1717.48 836.1C1708.15 820.7 1698.82 806.233 1689.48 792.7C1680.15 778.7 1670.82 766.1 1661.48 754.9H1607.58V932H1498.38V453.9C1522.18 449.233 1546.68 445.967 1571.88 444.1C1597.55 442.233 1620.42 441.3 1640.48 441.3ZM1646.78 534.4C1638.85 534.4 1631.62 534.633 1625.08 535.1C1619.02 535.567 1613.18 536.033 1607.58 536.5V668.1H1638.38C1679.45 668.1 1708.85 662.967 1726.58 652.7C1744.32 642.433 1753.18 624.933 1753.18 600.2C1753.18 576.4 1744.08 559.6 1725.88 549.8C1708.15 539.533 1681.78 534.4 1646.78 534.4ZM1923 750.7C1923 718.033 1927.9 689.567 1937.7 665.3C1947.97 640.567 1961.27 620.033 1977.6 603.7C1993.94 587.367 2012.6 575 2033.6 566.6C2055.07 558.2 2077 554 2099.4 554C2151.67 554 2192.97 570.1 2223.3 602.3C2253.64 634.033 2268.8 680.933 2268.8 743C2268.8 749.067 2268.57 755.833 2268.1 763.3C2267.64 770.3 2267.17 776.6 2266.7 782.2H2030.1C2032.44 803.667 2042.47 820.7 2060.2 833.3C2077.94 845.9 2101.74 852.2 2131.6 852.2C2150.74 852.2 2169.4 850.567 2187.6 847.3C2206.27 843.567 2221.44 839.133 2233.1 834L2247.1 918.7C2241.5 921.5 2234.04 924.3 2224.7 927.1C2215.37 929.9 2204.87 932.233 2193.2 934.1C2182 936.433 2169.87 938.3 2156.8 939.7C2143.74 941.1 2130.67 941.8 2117.6 941.8C2084.47 941.8 2055.54 936.9 2030.8 927.1C2006.54 917.3 1986.24 904 1969.9 887.2C1954.04 869.933 1942.14 849.633 1934.2 826.3C1926.74 802.967 1923 777.767 1923 750.7ZM2168 710.8C2167.54 701.933 2165.9 693.3 2163.1 684.9C2160.77 676.5 2156.8 669.033 2151.2 662.5C2146.07 655.967 2139.3 650.6 2130.9 646.4C2122.97 642.2 2112.94 640.1 2100.8 640.1C2089.14 640.1 2079.1 642.2 2070.7 646.4C2062.3 650.133 2055.3 655.267 2049.7 661.8C2044.1 668.333 2039.67 676.033 2036.4 684.9C2033.6 693.3 2031.5 701.933 2030.1 710.8H2168ZM2438.19 736C2438.19 794.333 2461.76 823.5 2508.89 823.5C2519.63 823.5 2529.66 822.1 2538.99 819.3C2548.33 816.5 2556.26 813.233 2562.79 809.5V642.9C2557.66 641.967 2551.59 641.267 2544.59 640.8C2537.59 639.867 2529.43 639.4 2520.09 639.4C2492.56 639.4 2472.03 648.5 2458.49 666.7C2444.96 684.9 2438.19 708 2438.19 736ZM2667.09 885.8C2667.09 946 2651.69 990.567 2620.89 1019.5C2590.56 1048.9 2543.43 1063.6 2479.49 1063.6C2457.09 1063.6 2434.69 1061.5 2412.29 1057.3C2389.89 1053.57 2369.13 1048.43 2349.99 1041.9L2368.19 954.4C2384.53 960.933 2401.56 966.067 2419.29 969.8C2437.49 973.533 2458.03 975.4 2480.89 975.4C2510.76 975.4 2531.76 968.867 2543.89 955.8C2556.49 942.733 2562.79 925.933 2562.79 905.4V892.1C2551.59 897.233 2539.93 901.2 2527.79 904C2516.13 906.333 2503.29 907.5 2489.29 907.5C2438.43 907.5 2399.46 892.567 2372.39 862.7C2345.33 832.367 2331.79 790.133 2331.79 736C2331.79 708.933 2335.99 684.433 2344.39 662.5C2352.79 640.1 2364.93 620.967 2380.79 605.1C2397.13 589.233 2416.96 577.1 2440.29 568.7C2463.63 559.833 2489.99 555.4 2519.39 555.4C2531.99 555.4 2544.83 556.1 2557.89 557.5C2571.43 558.433 2584.73 559.833 2597.79 561.7C2610.86 563.567 2623.23 565.9 2634.89 568.7C2647.03 571.033 2657.76 573.6 2667.09 576.4V885.8ZM3079.22 919.4C3061.48 924.533 3038.62 929.2 3010.62 933.4C2982.62 938.067 2953.22 940.4 2922.42 940.4C2891.15 940.4 2865.02 936.2 2844.02 927.8C2823.48 919.4 2807.15 907.733 2795.02 892.8C2782.88 877.4 2774.25 859.2 2769.12 838.2C2763.98 817.2 2761.42 794.1 2761.42 768.9V563.8H2865.72V756.3C2865.72 789.9 2870.15 814.167 2879.02 829.1C2887.88 844.033 2904.45 851.5 2928.72 851.5C2936.18 851.5 2944.12 851.267 2952.52 850.8C2960.92 849.867 2968.38 848.933 2974.92 848V563.8H3079.22V919.4ZM3324.13 939C3293.79 938.533 3269.06 935.267 3249.93 929.2C3231.26 923.133 3216.33 914.733 3205.13 904C3194.39 892.8 3186.93 879.5 3182.73 864.1C3178.99 848.233 3177.13 830.5 3177.13 810.9V405.6L3281.43 388.8V789.9C3281.43 799.233 3282.13 807.633 3283.53 815.1C3284.93 822.567 3287.49 828.867 3291.23 834C3295.43 839.133 3301.26 843.333 3308.73 846.6C3316.19 849.867 3326.23 851.967 3338.83 852.9L3324.13 939ZM3549.56 859.2C3559.83 859.2 3569.63 858.967 3578.96 858.5C3588.3 858.033 3595.76 857.333 3601.36 856.4V777.3C3597.16 776.367 3590.86 775.433 3582.46 774.5C3574.06 773.567 3566.36 773.1 3559.36 773.1C3549.56 773.1 3540.23 773.8 3531.36 775.2C3522.96 776.133 3515.5 778.233 3508.96 781.5C3502.43 784.767 3497.3 789.2 3493.56 794.8C3489.83 800.4 3487.96 807.4 3487.96 815.8C3487.96 832.133 3493.33 843.567 3504.06 850.1C3515.26 856.167 3530.43 859.2 3549.56 859.2ZM3541.16 554C3571.96 554 3597.63 557.5 3618.16 564.5C3638.7 571.5 3655.03 581.533 3667.16 594.6C3679.76 607.667 3688.63 623.533 3693.76 642.2C3698.9 660.867 3701.46 681.633 3701.46 704.5V921.5C3686.53 924.767 3665.76 928.5 3639.16 932.7C3612.56 937.367 3580.36 939.7 3542.56 939.7C3518.76 939.7 3497.06 937.6 3477.46 933.4C3458.33 929.2 3441.76 922.433 3427.76 913.1C3413.76 903.3 3403.03 890.7 3395.56 875.3C3388.1 859.9 3384.36 841 3384.36 818.6C3384.36 797.133 3388.56 778.933 3396.96 764C3405.83 749.067 3417.5 737.167 3431.96 728.3C3446.43 719.433 3463 713.133 3481.66 709.4C3500.33 705.2 3519.7 703.1 3539.76 703.1C3553.3 703.1 3565.2 703.8 3575.46 705.2C3586.2 706.133 3594.83 707.533 3601.36 709.4V699.6C3601.36 681.867 3596 667.633 3585.26 656.9C3574.53 646.167 3555.86 640.8 3529.26 640.8C3511.53 640.8 3494.03 642.2 3476.76 645C3459.5 647.333 3444.56 650.833 3431.96 655.5L3418.66 571.5C3424.73 569.633 3432.2 567.767 3441.06 565.9C3450.4 563.567 3460.43 561.7 3471.16 560.3C3481.9 558.433 3493.1 557.033 3504.76 556.1C3516.9 554.7 3529.03 554 3541.16 554ZM4017.68 656.2C4008.34 653.867 3997.38 651.533 3984.78 649.2C3972.18 646.4 3958.64 645 3944.18 645C3937.64 645 3929.71 645.7 3920.38 647.1C3911.51 648.033 3904.74 649.2 3900.08 650.6V932H3795.78V583.4C3814.44 576.867 3836.38 570.8 3861.58 565.2C3887.24 559.133 3915.71 556.1 3946.98 556.1C3952.58 556.1 3959.34 556.567 3967.28 557.5C3975.21 557.967 3983.14 558.9 3991.08 560.3C3999.01 561.233 4006.94 562.633 4014.88 564.5C4022.81 565.9 4029.58 567.767 4035.18 570.1L4017.68 656.2ZM292.6 1334.9C241.733 1334.9 204.867 1349.13 182 1377.6C159.6 1405.6 148.4 1444.1 148.4 1493.1C148.4 1516.9 151.2 1538.6 156.8 1558.2C162.4 1577.33 170.8 1593.9 182 1607.9C193.2 1621.9 207.2 1632.87 224 1640.8C240.8 1648.27 260.4 1652 282.8 1652C294.933 1652 305.2 1651.77 313.6 1651.3C322.467 1650.83 330.167 1649.9 336.7 1648.5V1479.8H445.9V1719.9C432.833 1725.03 411.833 1730.4 382.9 1736C353.967 1742.07 318.267 1745.1 275.8 1745.1C239.4 1745.1 206.267 1739.5 176.4 1728.3C147 1717.1 121.8 1700.77 100.8 1679.3C79.8 1657.83 63.4667 1631.47 51.8 1600.2C40.6 1568.93 35 1533.23 35 1493.1C35 1452.5 41.3 1416.57 53.9 1385.3C66.5 1354.03 83.7667 1327.67 105.7 1306.2C127.633 1284.27 153.3 1267.7 182.7 1256.5C212.567 1245.3 244.3 1239.7 277.9 1239.7C300.767 1239.7 321.3 1241.33 339.5 1244.6C358.167 1247.4 374.033 1250.9 387.1 1255.1C400.633 1258.83 411.6 1262.8 420 1267C428.867 1271.2 435.167 1274.47 438.9 1276.8L407.4 1364.3C392.467 1356.37 375.2 1349.6 355.6 1344C336.467 1337.93 315.467 1334.9 292.6 1334.9ZM540.504 1380.4C558.237 1375.27 581.104 1370.6 609.104 1366.4C637.104 1361.73 666.504 1359.4 697.304 1359.4C728.571 1359.4 754.471 1363.6 775.004 1372C796.004 1379.93 812.571 1391.37 824.704 1406.3C836.837 1421.23 845.471 1438.97 850.604 1459.5C855.737 1480.03 858.304 1502.9 858.304 1528.1V1736H754.004V1540.7C754.004 1507.1 749.571 1483.3 740.704 1469.3C731.837 1455.3 715.271 1448.3 691.004 1448.3C683.537 1448.3 675.604 1448.77 667.204 1449.7C658.804 1450.17 651.337 1450.87 644.804 1451.8V1736H540.504V1380.4ZM1297.11 1551.2C1297.11 1580.13 1292.91 1606.73 1284.51 1631C1276.11 1654.8 1263.98 1675.33 1248.11 1692.6C1232.24 1709.4 1213.11 1722.47 1190.71 1731.8C1168.78 1741.13 1144.04 1745.8 1116.51 1745.8C1089.44 1745.8 1064.71 1741.13 1042.31 1731.8C1020.38 1722.47 1001.48 1709.4 985.611 1692.6C969.744 1675.33 957.378 1654.8 948.511 1631C939.644 1606.73 935.211 1580.13 935.211 1551.2C935.211 1522.27 939.644 1495.9 948.511 1472.1C957.844 1448.3 970.444 1428 986.311 1411.2C1002.64 1394.4 1021.78 1381.33 1043.71 1372C1066.11 1362.67 1090.38 1358 1116.51 1358C1143.11 1358 1167.38 1362.67 1189.31 1372C1211.71 1381.33 1230.84 1394.4 1246.71 1411.2C1262.58 1428 1274.94 1448.3 1283.81 1472.1C1292.68 1495.9 1297.11 1522.27 1297.11 1551.2ZM1190.71 1551.2C1190.71 1519 1184.18 1493.8 1171.11 1475.6C1158.51 1456.93 1140.31 1447.6 1116.51 1447.6C1092.71 1447.6 1074.28 1456.93 1061.21 1475.6C1048.14 1493.8 1041.61 1519 1041.61 1551.2C1041.61 1583.4 1048.14 1609.07 1061.21 1628.2C1074.28 1646.87 1092.71 1656.2 1116.51 1656.2C1140.31 1656.2 1158.51 1646.87 1171.11 1628.2C1184.18 1609.07 1190.71 1583.4 1190.71 1551.2ZM1580.21 1540.7C1580.21 1507.1 1575.77 1483.3 1566.91 1469.3C1558.51 1455.3 1543.81 1448.3 1522.81 1448.3C1516.27 1448.3 1509.51 1448.77 1502.51 1449.7C1495.51 1450.17 1488.74 1450.87 1482.21 1451.8V1736H1377.91V1380.4C1386.77 1378.07 1397.04 1375.73 1408.71 1373.4C1420.84 1370.6 1433.44 1368.27 1446.51 1366.4C1460.04 1364.07 1473.81 1362.43 1487.81 1361.5C1501.81 1360.1 1515.57 1359.4 1529.11 1359.4C1555.71 1359.4 1577.17 1362.9 1593.51 1369.9C1610.31 1376.43 1624.07 1384.37 1634.81 1393.7C1649.74 1382.97 1666.77 1374.57 1685.91 1368.5C1705.51 1362.43 1723.47 1359.4 1739.81 1359.4C1769.21 1359.4 1793.24 1363.6 1811.91 1372C1831.04 1379.93 1846.21 1391.37 1857.41 1406.3C1868.61 1421.23 1876.31 1438.97 1880.51 1459.5C1884.71 1480.03 1886.81 1502.9 1886.81 1528.1V1736H1782.51V1540.7C1782.51 1507.1 1778.07 1483.3 1769.21 1469.3C1760.81 1455.3 1746.11 1448.3 1725.11 1448.3C1719.51 1448.3 1711.57 1449.7 1701.31 1452.5C1691.51 1455.3 1683.34 1458.8 1676.81 1463C1680.07 1473.73 1682.17 1485.17 1683.11 1497.3C1684.04 1508.97 1684.51 1521.57 1684.51 1535.1V1736H1580.21V1540.7ZM1964.02 1554.7C1964.02 1522.03 1968.92 1493.57 1978.72 1469.3C1988.99 1444.57 2002.29 1424.03 2018.62 1407.7C2034.95 1391.37 2053.62 1379 2074.62 1370.6C2096.09 1362.2 2118.02 1358 2140.42 1358C2192.69 1358 2233.99 1374.1 2264.32 1406.3C2294.65 1438.03 2309.82 1484.93 2309.82 1547C2309.82 1553.07 2309.59 1559.83 2309.12 1567.3C2308.65 1574.3 2308.19 1580.6 2307.72 1586.2H2071.12C2073.45 1607.67 2083.49 1624.7 2101.22 1637.3C2118.95 1649.9 2142.75 1656.2 2172.62 1656.2C2191.75 1656.2 2210.42 1654.57 2228.62 1651.3C2247.29 1647.57 2262.45 1643.13 2274.12 1638L2288.12 1722.7C2282.52 1725.5 2275.05 1728.3 2265.72 1731.1C2256.39 1733.9 2245.89 1736.23 2234.22 1738.1C2223.02 1740.43 2210.89 1742.3 2197.82 1743.7C2184.75 1745.1 2171.69 1745.8 2158.62 1745.8C2125.49 1745.8 2096.55 1740.9 2071.82 1731.1C2047.55 1721.3 2027.25 1708 2010.92 1691.2C1995.05 1673.93 1983.15 1653.63 1975.22 1630.3C1967.75 1606.97 1964.02 1581.77 1964.02 1554.7ZM2209.02 1514.8C2208.55 1505.93 2206.92 1497.3 2204.12 1488.9C2201.79 1480.5 2197.82 1473.03 2192.22 1466.5C2187.09 1459.97 2180.32 1454.6 2171.92 1450.4C2163.99 1446.2 2153.95 1444.1 2141.82 1444.1C2130.15 1444.1 2120.12 1446.2 2111.72 1450.4C2103.32 1454.13 2096.32 1459.27 2090.72 1465.8C2085.12 1472.33 2080.69 1480.03 2077.42 1488.9C2074.62 1497.3 2072.52 1505.93 2071.12 1514.8H2209.02Z" fill="white"/>
</svg>
